<?xml version="1.0" encoding="UTF-8" standalone="no"?>
<!-- Created with Inkscape (http://www.inkscape.org/) -->

<svg
   width="2500"
   height="2500"
   viewBox="0 0 661.45827 661.45834"
   version="1.1"
   id="svg5"
   inkscape:version="1.2.2 (732a01da63, 2022-12-09, custom)"
   sodipodi:docname="deimos_1.svg"
   xml:space="preserve"
   xmlns:inkscape="http://www.inkscape.org/namespaces/inkscape"
   xmlns:sodipodi="http://sodipodi.sourceforge.net/DTD/sodipodi-0.dtd"
   xmlns="http://www.w3.org/2000/svg"
   xmlns:svg="http://www.w3.org/2000/svg"><sodipodi:namedview
     id="namedview7"
     pagecolor="#737373"
     bordercolor="#000000"
     borderopacity="0.25"
     inkscape:showpageshadow="2"
     inkscape:pageopacity="0"
     inkscape:pagecheckerboard="true"
     inkscape:deskcolor="#d1d1d1"
     inkscape:document-units="mm"
     showgrid="false"
     inkscape:zoom="0.2287265"
     inkscape:cx="-647.06101"
     inkscape:cy="918.12711"
     inkscape:window-width="2560"
     inkscape:window-height="1203"
     inkscape:window-x="0"
     inkscape:window-y="0"
     inkscape:window-maximized="1"
     inkscape:current-layer="g341"
     shape-rendering="crispEdges" /><defs
     id="defs2"><filter
       style="color-interpolation-filters:sRGB"
       inkscape:label="Blur"
       id="filter3245"
       x="-0.11704186"
       y="-0.16301711"
       width="1.2340837"
       height="1.3260342"><feGaussianBlur
         stdDeviation="2.37649 3.31"
         result="fbSourceGraphic"
         id="feGaussianBlur3243" /><feColorMatrix
         result="fbSourceGraphicAlpha"
         in="fbSourceGraphic"
         values="0 0 0 -1 0 0 0 0 -1 0 0 0 0 -1 0 0 0 0 1 0"
         id="feColorMatrix3247" /><feGaussianBlur
         id="feGaussianBlur3249"
         stdDeviation="2.37649 3.31"
         result="blur"
         in="fbSourceGraphic" /></filter><clipPath
       clipPathUnits="userSpaceOnUse"
       id="clipPath1035"><path
         style="fill:#ac9393;stroke-width:0.0688331"
         d="m 149.57799,102.56335 c -5.20132,-6.527537 -4.48498,-6.18932 -8.22971,-8.105129 -3.74475,-1.915806 -10.14979,-4.35432 -12.79518,-4.874857 l -7.94354,-1.563063 c -2.8375,-0.55834 -7.48608,-0.884341 -9.56387,-0.310734 -2.07778,0.573609 -3.25282,0.538119 -5.25616,0.733393 -2.00334,0.195274 -3.35834,2.088521 -4.60195,3.415744 -1.24362,1.327224 -1.518213,-0.45612 -3.55133,2.055151 -2.332192,2.880678 -2.300978,1.707873 -3.124362,3.902985 -0.823383,2.19511 -3.781705,5.95663 -4.970132,7.2762 -1.502649,1.66847 -1.767838,1.02681 -3.122978,2.9208 -1.35514,1.89398 -1.201111,2.12539 -4.029071,5.49722 -2.827957,3.37183 -3.353704,4.05435 -4.294765,5.83332 -0.941062,1.77897 -2.340162,2.88218 -3.614845,5.38147 -1.274685,2.4993 -3.37862,6.20932 -3.719633,6.92818 -0.341013,0.71887 -4.782783,5.34892 -5.08042,6.86152 -0.297636,1.51259 -0.562243,0.86799 -0.63264,3.2151 -0.0704,2.34711 0.232012,2.79961 0.42891,4.8025 0.196898,2.00289 0.770506,4.08067 0.626535,6.80169 -0.143971,2.72102 -0.968082,4.91982 -0.171136,5.86261 0.796945,0.94278 4.392938,3.61451 7.385344,4.39983 2.99241,0.78531 3.110231,1.20071 6.66423,2.09652 3.553997,0.89583 5.372601,0.6642 6.960481,1.56613 1.587881,0.90192 11.052247,3.74669 11.052247,3.74669 0,0 0.57528,1.09412 5.637945,1.30511 5.06265,0.21099 5.48288,1.07888 12.02451,0.79492 6.54163,-0.28396 8.35198,-0.5126 11.74841,-2.79472 3.39643,-2.28212 5.40578,-1.49376 8.98143,-5.70092 3.57567,-4.20717 5.52218,-11.09587 6.46324,-12.87484 0.94106,-1.77898 1.37477,-5.03629 4.65541,-9.69449 3.28064,-4.6582 3.54808,-5.00316 5.2367,-7.61673 1.68862,-2.61357 1.94795,-2.95629 1.94918,-3.93773 0.001,-0.98145 -1.65564,-10.54334 -1.8836,-11.37417 -0.22797,-0.83082 -2.40581,-7.74511 -2.40581,-7.74511 z"
         id="path1037"
         sodipodi:nodetypes="csssssssssssssssssssssscssssssssscc" /></clipPath><filter
       style="color-interpolation-filters:sRGB;"
       inkscape:label="Blur"
       id="filter1783"
       x="-0.54825086"
       y="-0.37466256"
       width="2.0965017"
       height="1.7493251"><feGaussianBlur
         stdDeviation="8.2506 7.59962"
         result="fbSourceGraphic"
         id="feGaussianBlur1781" /><feColorMatrix
         result="fbSourceGraphicAlpha"
         in="fbSourceGraphic"
         values="0 0 0 -1 0 0 0 0 -1 0 0 0 0 -1 0 0 0 0 1 0"
         id="feColorMatrix1785" /><feGaussianBlur
         id="feGaussianBlur1787"
         stdDeviation="8.2506 7.59962"
         result="blur"
         in="fbSourceGraphic" /></filter><filter
       style="color-interpolation-filters:sRGB;"
       inkscape:label="Blur"
       id="filter2006"
       x="-0.42167312"
       y="-0.39785016"
       width="1.8433462"
       height="1.7957003"><feGaussianBlur
         stdDeviation="10.2163 11.8501"
         result="fbSourceGraphic"
         id="feGaussianBlur2004" /><feColorMatrix
         result="fbSourceGraphicAlpha"
         in="fbSourceGraphic"
         values="0 0 0 -1 0 0 0 0 -1 0 0 0 0 -1 0 0 0 0 1 0"
         id="feColorMatrix2008" /><feGaussianBlur
         id="feGaussianBlur2010"
         stdDeviation="10.2163 11.8501"
         result="blur"
         in="fbSourceGraphic" /></filter><filter
       style="color-interpolation-filters:sRGB;"
       inkscape:label="Blur"
       id="filter2148"
       x="-0.01465201"
       y="-1.0993171"
       width="1.029304"
       height="3.1986342"><feGaussianBlur
         stdDeviation="0.01 1.06433"
         result="fbSourceGraphic"
         id="feGaussianBlur2146" /><feColorMatrix
         result="fbSourceGraphicAlpha"
         in="fbSourceGraphic"
         values="0 0 0 -1 0 0 0 0 -1 0 0 0 0 -1 0 0 0 0 1 0"
         id="feColorMatrix2150" /><feGaussianBlur
         id="feGaussianBlur2152"
         stdDeviation="0.01 1.06433"
         result="blur"
         in="fbSourceGraphic" /></filter><filter
       style="color-interpolation-filters:sRGB"
       inkscape:label="Blur"
       id="filter2148-3"
       x="-0.01465201"
       y="-1.0993171"
       width="1.029304"
       height="3.1986342"><feGaussianBlur
         stdDeviation="0.01 1.06433"
         result="fbSourceGraphic"
         id="feGaussianBlur2146-6" /><feColorMatrix
         result="fbSourceGraphicAlpha"
         in="fbSourceGraphic"
         values="0 0 0 -1 0 0 0 0 -1 0 0 0 0 -1 0 0 0 0 1 0"
         id="feColorMatrix2150-7" /><feGaussianBlur
         id="feGaussianBlur2152-5"
         stdDeviation="0.01 1.06433"
         result="blur"
         in="fbSourceGraphic" /></filter><filter
       style="color-interpolation-filters:sRGB"
       inkscape:label="Blur"
       id="filter2148-3-5"
       x="-0.01465201"
       y="-1.0993171"
       width="1.029304"
       height="3.1986342"><feGaussianBlur
         stdDeviation="0.01 1.06433"
         result="fbSourceGraphic"
         id="feGaussianBlur2146-6-6" /><feColorMatrix
         result="fbSourceGraphicAlpha"
         in="fbSourceGraphic"
         values="0 0 0 -1 0 0 0 0 -1 0 0 0 0 -1 0 0 0 0 1 0"
         id="feColorMatrix2150-7-2" /><feGaussianBlur
         id="feGaussianBlur2152-5-9"
         stdDeviation="0.01 1.06433"
         result="blur"
         in="fbSourceGraphic" /></filter><filter
       style="color-interpolation-filters:sRGB;"
       inkscape:label="Invert"
       id="filter2702"
       x="0"
       y="0"
       width="1"
       height="1"><feColorMatrix
         type="hueRotate"
         values="180"
         result="color1"
         id="feColorMatrix2698" /><feColorMatrix
         values="-1 0 0 0 1 0 -1 0 0 1 0 0 -1 0 1 -0.21 -0.72 -0.07 2 0 "
         result="fbSourceGraphic"
         id="feColorMatrix2700" /><feColorMatrix
         result="fbSourceGraphicAlpha"
         in="fbSourceGraphic"
         values="0 0 0 -1 0 0 0 0 -1 0 0 0 0 -1 0 0 0 0 1 0"
         id="feColorMatrix2704" /><feColorMatrix
         id="feColorMatrix2706"
         type="hueRotate"
         values="180"
         result="color1"
         in="fbSourceGraphic" /><feColorMatrix
         id="feColorMatrix2708"
         values="-1 0 0 0 1 0 -1 0 0 1 0 0 -1 0 1 -0.21 -0.72 -0.07 2 0 "
         result="fbSourceGraphic" /><feColorMatrix
         result="fbSourceGraphicAlpha"
         in="fbSourceGraphic"
         values="0 0 0 -1 0 0 0 0 -1 0 0 0 0 -1 0 0 0 0 1 0"
         id="feColorMatrix2710" /><feColorMatrix
         id="feColorMatrix2712"
         type="hueRotate"
         values="180"
         result="color1"
         in="fbSourceGraphic" /><feColorMatrix
         id="feColorMatrix2714"
         values="-1 0 0 0 1 0 -1 0 0 1 0 0 -1 0 1 -0.21 -0.72 -0.07 2 0 "
         result="color2" /></filter><clipPath
       clipPathUnits="userSpaceOnUse"
       id="clipPath2832"><path
         style="display:inline;fill:#000000;stroke-width:0.412999"
         d="m 14.795636,-354.25368 c 0,0 67.009081,38.65485 70.645214,44.33685 3.636109,5.68198 38.38602,49.87097 38.38602,49.87097 l 19.34183,29.54887 c 0,0 0.31691,11.58144 8.78179,25.23169 8.46487,13.65023 32.38284,41.93481 36.11401,51.09033 3.73117,9.15551 27.59887,33.95176 31.31639,44.26033 3.71752,10.308562 13.2087,59.81298 13.2087,59.81298 l -13.26935,65.170837 -23.66851,23.782609 c 0,0 -27.16406,21.586462 -42.14215,24.310715 -14.97809,2.724252 -57.753443,3.894737 -57.753443,3.894737 L 56.141937,56.551132 32.730479,46.776947 -8.0258734,37.481885 -35.710093,41.711033 -82.279746,31.417852 l -45.205534,-3.391825 -99.62354,-130.351997 -10.20858,-34.4231 17.09542,-52.54633 c 0,0 31.46857,-34.42894 37.06041,-41.52514 5.59183,-7.09623 59.58598,-64.12382 59.58598,-64.12382 l 38.664752,-24.19295 41.139944,-19.63641 21.604356,-13.31586 z"
         id="path2834" /></clipPath></defs><g
     id="g341"><path
       style="fill:#4d4d4d;stroke-width:0.770602"
       d="m 555.85712,223.80518 c -70.5678,-28.41277 -141.1356,-56.82553 -211.70339,-85.2383 70.5678,28.41276 141.13559,56.82553 211.70339,85.2383 z M 172.67055,133.2761 c -53.20432,16.32953 -44.06299,90.60329 -59.97464,124.87435 -18.092056,38.96731 -28.281059,117.94874 -4.56465,155.49703 28.27074,44.75881 45.16528,70.73847 86.91093,107.28492 46.77177,40.94658 99.18122,96.53842 148.32119,83.88514 C 406.32,591.76476 458.14193,547.55963 504.05337,504.58931 543.27387,460.7308 575.10064,405.73132 580.89536,346.56193 573.39561,283.06627 523.8246,235.06633 480.55571,192.2393 444.57026,153.24657 390.66333,152.57268 343.29085,138.69255 288.85423,124.43817 225.57688,104.33811 172.67055,133.2761 Z"
       id="path343"
       sodipodi:nodetypes="scsssssssssss" /><path
       style="fill:#a6a192;stroke-width:0.770602;fill-opacity:1"
       d="m 207.85353,122.66732 c 72.35215,-12.29026 139.93275,25.03521 210.33014,34.23271 59.015,19.07127 98.30185,72.09625 134.34777,119.37643 25.89833,33.18561 35.21556,78.84999 16.37483,117.5248 -14.53799,41.49663 -36.62616,81.11345 -68.64345,111.67415 -5.26471,-59.61941 -99.79406,60.08288 -126.03108,32.28479 -63.6487,-45.94313 -40.17757,-333.35276 -82.36624,-251.63178 -23.09511,-22.51532 -32.1437,-52.29978 -62.17016,-59.80476 -17.8148,-32.72475 -12.78946,-49.73445 -23.74387,-86.48324 -13.4845,0.27376 -6.53582,-17.90729 1.90206,-17.1731 z m 263.32556,378.28459 c 22.69165,20.81157 -26.57476,64.24099 -45.19169,43.64383 1.57905,-3.37122 40.73389,-53.48624 45.19169,-43.64383 z"
       id="path347"
       sodipodi:nodetypes="ccccccccccccc" /><path
       style="fill:#837e75;stroke-width:0.770602"
       d="m 186.85824,125.46473 c 62.81721,-18.75168 126.19224,6.33511 186.91543,21.1784 31.6653,6.39987 65.34958,11.08465 90.9547,32.72315 38.49913,30.31183 71.58176,68.01999 96.6254,110.13334 C 527.8927,240.14692 488.94122,190.99181 435.18545,162.92346 396.38118,149.59044 354.90497,146.44257 316.2256,132.57199 281.89913,123.56012 245.83231,115.88075 210.32918,121.6087 c -25.36969,16.55323 15.02977,31.21157 11.62681,52.58845 9.9067,17.92679 32.30506,20.17123 40.28457,41.27343 12.37349,30.68883 51.55433,8.91661 62.73352,38.57749 4.54542,14.41762 30.89486,28.41935 27.21184,3.35556 5.92375,-23.19603 24.02305,36.97672 4.07421,18.99872 -27.47149,10.91989 15.51484,42.25667 -3.18038,61.8776 -14.63301,28.66401 10.02937,52.68012 9.91375,79.68314 4.71974,24.0205 15.6245,43.62357 25.06774,65.54466 17.30466,19.19716 46.19119,32.01848 66.54574,8.92083 14.08676,-9.3568 51.71764,-18.72046 44.1019,10.55961 21.16597,-9.80989 30.26822,-33.98571 43.87602,-51.59832 17.54038,-31.59102 32.68241,-65.79425 37.39432,-101.79912 -0.48273,-17.26674 -6.04208,-33.91767 -12.43713,-49.80326 15.04655,26.83699 18.74662,60.04193 5.05923,88.15941 -19.2135,58.15076 -54.8039,110.75958 -103.43499,148.2342 -34.59201,28.65358 -73.05843,53.38688 -115.58169,68.43682 -29.71939,1.19095 -67.18234,7.54223 -86.90032,-20.9224 -27.03187,-19.64418 -38.30519,-52.14132 -26.00095,-83.50402 5.73433,-30.3291 -0.63409,-60.30923 -10.59165,-88.96124 -10.37759,-31.95875 -38.35368,-53.72493 -52.53567,-83.83484 -21.60382,-37.37647 -16.5724,-82.45394 -28.7449,-122.75439 -3.93236,-23.45061 -14.89799,-60.33145 17.66273,-68.07708 6.8865,-3.52797 13.67931,-7.23786 20.38436,-11.09922 z m 264.76102,390.51245 c -23.32121,7.89594 2.84748,45.52054 10.97574,15.95341 2.27959,-6.74795 -1.13787,-30.02104 -10.97574,-15.95341 z M 389.37547,248.49269 c 39.01785,1.04983 0.84869,52.55313 -7.98304,11.39615 -0.74745,-5.05285 2.39687,-11.17231 7.98304,-11.39615 z"
       id="path345" /></g></svg>
