<?xml version="1.0" encoding="UTF-8" standalone="no"?>
<!-- Created with Inkscape (http://www.inkscape.org/) -->

<svg
   width="2500"
   height="2500"
   viewBox="0 0 661.45827 661.45834"
   version="1.1"
   id="svg5"
   inkscape:version="1.2.2 (732a01da63, 2022-12-09, custom)"
   sodipodi:docname="mars_1.svg"
   xmlns:inkscape="http://www.inkscape.org/namespaces/inkscape"
   xmlns:sodipodi="http://sodipodi.sourceforge.net/DTD/sodipodi-0.dtd"
   xmlns:xlink="http://www.w3.org/1999/xlink"
   xmlns="http://www.w3.org/2000/svg"
   xmlns:svg="http://www.w3.org/2000/svg">
  <sodipodi:namedview
     id="namedview7"
     pagecolor="#232323"
     bordercolor="#000000"
     borderopacity="0.25"
     inkscape:showpageshadow="2"
     inkscape:pageopacity="0"
     inkscape:pagecheckerboard="true"
     inkscape:deskcolor="#d1d1d1"
     inkscape:document-units="mm"
     showgrid="false"
     inkscape:zoom="0.2287265"
     inkscape:cx="-275.43813"
     inkscape:cy="1127.9847"
     inkscape:window-width="2560"
     inkscape:window-height="1203"
     inkscape:window-x="0"
     inkscape:window-y="0"
     inkscape:window-maximized="1"
     inkscape:current-layer="svg5"
     shape-rendering="crispEdges" />
  <defs
     id="defs2">
    <linearGradient
       inkscape:collect="always"
       id="linearGradient3363">
      <stop
         style="stop-color:#905f38;stop-opacity:0;"
         offset="0"
         id="stop3359" />
      <stop
         style="stop-color:#200f09;stop-opacity:1;"
         offset="1"
         id="stop3361" />
    </linearGradient>
    <linearGradient
       inkscape:collect="always"
       id="linearGradient1189">
      <stop
         style="stop-color:#969696;stop-opacity:0;"
         offset="0"
         id="stop1185" />
      <stop
         style="stop-color:#ed8640;stop-opacity:1;"
         offset="1"
         id="stop1187" />
    </linearGradient>
    <linearGradient
       inkscape:collect="always"
       id="linearGradient1174">
      <stop
         style="stop-color:#ffffff;stop-opacity:1"
         offset="0"
         id="stop1170" />
      <stop
         style="stop-color:#00ffff;stop-opacity:1"
         offset="1"
         id="stop1172" />
    </linearGradient>
    <radialGradient
       inkscape:collect="always"
       xlink:href="#linearGradient1174"
       id="radialGradient1168"
       cx="108.92227"
       cy="133.48206"
       fx="108.92227"
       fy="133.48206"
       r="48.731079"
       gradientUnits="userSpaceOnUse"
       gradientTransform="matrix(0.15708129,-0.59925167,0.16868182,0.04421638,72.644035,191.88739)" />
    <radialGradient
       inkscape:collect="always"
       xlink:href="#linearGradient1174"
       id="radialGradient1181"
       gradientUnits="userSpaceOnUse"
       gradientTransform="matrix(-0.55985139,0.26275695,-0.49123324,-1.0466586,238.82079,243.60769)"
       cx="111.30264"
       cy="134.90852"
       fx="111.30264"
       fy="134.90852"
       r="48.731079" />
    <radialGradient
       inkscape:collect="always"
       xlink:href="#linearGradient1189"
       id="radialGradient1183"
       gradientUnits="userSpaceOnUse"
       gradientTransform="matrix(2.3937826,-2.1093063,2.8143394,3.1937265,-504.93251,-100.3692)"
       cx="86.9142"
       cy="136.0275"
       fx="86.9142"
       fy="136.0275"
       r="48.731079"
       spreadMethod="reflect" />
    <filter
       style="color-interpolation-filters:sRGB"
       inkscape:label="Blur"
       id="filter3245"
       x="-0.11704186"
       y="-0.16301711"
       width="1.2340837"
       height="1.3260342">
      <feGaussianBlur
         stdDeviation="2.37649 3.31"
         result="fbSourceGraphic"
         id="feGaussianBlur3243" />
      <feColorMatrix
         result="fbSourceGraphicAlpha"
         in="fbSourceGraphic"
         values="0 0 0 -1 0 0 0 0 -1 0 0 0 0 -1 0 0 0 0 1 0"
         id="feColorMatrix3247" />
      <feGaussianBlur
         id="feGaussianBlur3249"
         stdDeviation="2.37649 3.31"
         result="blur"
         in="fbSourceGraphic" />
    </filter>
    <radialGradient
       inkscape:collect="always"
       xlink:href="#linearGradient3363"
       id="radialGradient3365"
       cx="121.42692"
       cy="143.26813"
       fx="121.42692"
       fy="143.26813"
       r="43.523369"
       gradientUnits="userSpaceOnUse"
       gradientTransform="matrix(0.8850696,-0.79180844,0.81538571,0.91146691,-104.61592,86.498037)" />
    <clipPath
       clipPathUnits="userSpaceOnUse"
       id="clipPath3538">
      <circle
         style="display:inline;fill:#a05a2c;fill-opacity:1;stroke-width:0.264583"
         id="circle3540"
         cx="109.35615"
         cy="131.82224"
         r="43.523369"
         inkscape:label="Main" />
    </clipPath>
  </defs>
  <g
     id="g1166"
     style="display:inline;fill:url(#radialGradient1168);fill-opacity:1"
     inkscape:label="Atmos"
     transform="matrix(6,0,0,6,-323.40911,-463.91569)">
    <circle
       style="display:inline;fill:url(#radialGradient1183);fill-opacity:1;stroke-width:0.296241;filter:url(#filter3245)"
       id="path111-5"
       cx="109.02305"
       cy="132.44081"
       r="48.731079"
       transform="matrix(0.91512225,0,0,0.91512225,9.253631,11.241278)"
       inkscape:label="Atmos" />
  </g>
  <g
     inkscape:label="Planet"
     id="layer1"
     style="display:inline;fill:url(#radialGradient1181);fill-opacity:1"
     clip-path="url(#clipPath3538)"
     inkscape:groupmode="layer"
     transform="matrix(6,0,0,6,-325.40771,-458.98681)">
    <circle
       style="fill:#a05a2c;stroke-width:0.264583"
       id="path111"
       cx="110.67098"
       cy="129.3932"
       r="43.523369"
       inkscape:label="Main" />
    <path
       style="display:inline;fill:#784421;fill-opacity:1;stroke-width:0.264583"
       d="m 161.04761,129.84999 c -0.29954,-0.46733 -2.95143,0.69594 -3.76175,0.28919 -0.27181,-0.13644 -0.0674,-0.65252 -0.28241,-0.86758 -0.3421,-0.34209 -0.86025,-0.49065 -1.16355,-0.86757 -0.15844,-0.19689 0.0792,-0.62453 0,-0.86758 -0.3339,-1.02439 -0.48807,-2.1752 -1.44596,-2.89643 -1.22682,-0.92373 -3.25844,0.10521 -4.62029,-0.57839 -0.24559,-0.12327 -0.3586,-0.42623 -0.58742,-0.57838 -1.06117,-0.7056 -2.71779,-1.30153 -3.46804,-2.3124 -0.41517,-0.55939 -0.35614,-1.30167 -0.57613,-1.73403 -0.0871,-0.17116 -0.38408,0 -0.57612,0 -0.72211,0 0.20974,0.0694 -0.86984,-0.57838 -0.52401,-0.31441 -1.21565,-0.26398 -1.73967,-0.57838 -0.23334,-0.14001 -0.35873,-0.41471 -0.57612,-0.57839 -0.32643,-0.24578 -0.87367,-0.39107 -1.15225,-0.57838 -0.33962,-0.22835 -0.50337,-0.68428 -0.86983,-0.86645 -0.27361,-0.13601 -0.62574,-0.1054 -0.86984,-0.28919 -0.1714,-0.12905 -0.13051,-0.42687 -0.28241,-0.57838 -0.54231,-0.54089 -1.73522,-0.69231 -2.3158,-1.15677 -0.16884,-0.13508 -0.17398,-0.39832 -0.29371,-0.57838 -0.31426,-0.47263 -0.93863,-2.09795 -1.15225,-2.31241 -0.0467,-0.0469 -0.82315,-0.24233 -0.86983,-0.28919 -0.068,-0.0683 0,-0.19279 0,-0.28919 -0.19204,-0.0964 -0.42433,-0.1371 -0.57613,-0.28919 -0.0678,-0.068 0.0859,-0.24512 0,-0.28807 -0.24702,-0.12351 -0.94006,-0.0691 -1.16354,-0.28919 -0.20607,-0.2029 0.15926,-0.62618 0,-0.86757 -0.1188,-0.18007 -0.44796,-0.12131 -0.57612,-0.29484 -0.18069,-0.24464 -0.0996,-0.6245 -0.28242,-0.86758 -0.13117,-0.17443 -0.43289,-0.13506 -0.58742,-0.28919 -0.0828,-0.0826 -1.04218,-1.47562 -1.44596,-0.86758 -0.26561,0.39998 -0.20425,1.07505 -0.57612,1.44596 -0.99887,0.99628 -2.79691,1.38156 -3.17433,2.89644 -0.17505,0.7026 -0.25121,2.98665 0,3.75836 0.0417,0.12812 0.28241,0.15446 0.28241,0.2892 0,0.13473 -0.2233,0.16811 -0.28241,0.28919 -0.0423,0.0866 0.0915,0.25878 0,0.28919 -0.81868,0.27218 -2.1284,-0.38326 -2.89192,0 -0.18408,0.0924 0.54228,4.45202 0.28241,4.62481 -0.75185,0.49993 -2.75307,0.7254 -3.17433,1.15677 -0.0674,0.069 0.0687,0.22156 0,0.28919 -0.0698,0.0687 -0.22395,-0.0687 -0.29371,0 -0.20607,0.2029 0.0712,0.58729 0,0.86757 -0.0532,0.20925 -0.29371,0.36136 -0.29371,0.57726 0,0.30531 0.12253,0.61476 0.29371,0.86757 0.17131,0.25301 0.65491,0.072 0.86983,0.2892 0.31321,0.3165 1.40559,2.0819 0.86984,2.60837 -1.12563,1.10615 -7.56628,1.39832 -9.26318,1.15564 -0.70707,-0.10113 -1.63747,-0.86758 -2.3045,-0.86758 -0.0964,0 0.0865,0.24662 0,0.28919 -0.17568,0.0865 -0.41209,-0.0872 -0.58742,0 -0.24368,0.12113 -0.32347,0.47733 -0.57613,0.57839 -0.35796,0.14318 -3.33988,0.28919 -3.76175,0.28919 -1.70663,0 -3.76264,0.24706 -5.490123,0 -1.996718,-0.28556 0.05233,-0.20234 -1.445961,-0.57838 -0.186264,-0.0468 -0.40449,0.0862 -0.576123,0 -0.08615,-0.0433 0,-0.1928 0,-0.2892 -0.289946,-0.0964 -0.573307,-0.21549 -0.869836,-0.28919 -0.804984,-0.20007 -1.537224,0.10349 -2.315792,-0.28806 -2.573258,-1.29412 0.500118,0.21598 -1.15225,-1.45161 -0.13517,-0.13641 -0.39389,0.0606 -0.576125,0 -0.130378,-0.0433 -0.170442,-0.2285 -0.293708,-0.28919 -0.609217,-0.29992 -1.794762,0.11369 -2.315795,0.28919 -0.329996,0.11116 -3.89672,-0.22885 -4.620292,-0.28919 -1.621295,-0.13519 -2.834306,-0.49989 -4.337878,0 -0.0929,0.0309 -0.24938,-0.0873 -0.293708,0 -0.709613,1.39739 2.521955,3.15925 3.468041,3.47482 2.064174,0.68851 4.269031,0.87726 6.359962,1.44596 1.224968,0.33318 2.302232,0.86307 3.479337,1.15564 0.720585,0.17909 1.593614,0.11077 2.3045,0.28919 0.503499,0.12637 0.938328,0.46979 1.445958,0.57838 1.521428,0.32548 3.105943,0.27326 4.631583,0.57839 1.34984,0.26996 2.38099,1.09997 3.76175,1.44483 0.28131,0.0703 0.5947,-0.0915 0.86984,0 0.18294,0.0608 0,0.38559 0,0.57838 0,0.48199 0.11861,0.9788 0,1.44596 -0.20444,0.80516 -0.26964,-0.0295 -0.58742,0.28919 -0.19908,0.19967 -1.87504,2.02284 -2.02209,2.31241 -0.0436,0.0859 0.068,0.22089 0,0.28919 -0.15164,0.15224 -0.38408,0.19279 -0.57612,0.28919 -0.28994,0.28881 -0.61467,0.54649 -0.86983,0.86644 -0.13378,0.16774 -0.131,0.42638 -0.28242,0.57839 -0.0691,0.0694 -0.22394,-0.0687 -0.29371,0 -0.91136,0.89734 2.19571,2.12635 2.31579,2.6016 0.0713,0.2822 0,0.58215 0,0.87322 0,0.0964 0.068,0.22089 0,0.28919 -0.34142,0.34276 -0.77569,0.57839 -1.16354,0.86758 -1.59974,1.19281 -4.189851,0.67412 -5.783833,1.73402 -0.873509,-0.7076 -0.494877,0.78601 -0.576125,0.86757 -0.712454,0.71525 -0.392798,-0.0146 -1.15225,0.2892 -0.61831,0.24732 -1.161743,0.86667 -1.739667,1.15676 -0.0099,0.005 -0.573497,-0.005 -0.576125,0 -0.08729,0.1719 0.13606,0.44179 0,0.57839 -0.135527,0.13606 -0.393819,-0.0604 -0.576125,0 -0.130177,0.0431 -0.163531,0.24495 -0.293711,0.28806 -0.275243,0.0911 -0.663228,-0.20343 -0.869834,0 -0.06869,0.0676 0.09135,0.25842 0,0.28919 -0.285276,0.0961 -1.823775,0.0728 -1.152249,0.57838 1.683207,1.26736 5.603234,2.67714 7.80592,2.31241 2.104279,-0.34844 -0.09713,-0.28806 1.445958,-0.28806 1.174701,0 2.721821,0.33476 3.761751,-0.2892 0.18541,-0.11124 0.14112,-0.42518 0.29371,-0.57838 0.24352,-0.24447 0.57177,-0.38646 0.85854,-0.57838 0.49159,-0.32901 1.93745,-1.30422 2.31579,-1.44596 0.60548,-0.22683 4.1962,-0.0871 4.6316,0 0.57279,0.11456 1.16676,0.12855 1.72837,0.28919 0.41643,0.11911 0.74069,0.48466 1.16355,0.57838 1.36943,0.30353 5.97333,-0.48326 6.93608,0 0.2432,0.12208 0.38408,0.38559 0.57613,0.57839 0.1958,0.19279 0.34151,0.45575 0.58742,0.57838 0.93521,0.46639 1.23294,0.0921 2.02208,0.28919 1.72164,0.42999 3.68411,1.15564 5.49013,1.15564 0.13378,0 -0.075,-0.74186 -0.28242,-1.15564 -1.07408,-2.14258 -0.20611,-0.69561 -2.89192,-3.17998 -1.63245,-1.51002 -3.46812,-3.13798 -5.78383,-3.46917 -0.28703,-0.041 -0.58845,0.0699 -0.86984,0 -0.35793,-0.089 -1.08147,-2.50214 -0.86983,-2.60837 0.17163,-0.0862 0.40449,0.0862 0.57612,0 5.3e-4,-2.5e-4 -5.3e-4,-0.57626 0,-0.57726 0.0182,-0.0365 1.13717,-1.70893 1.16355,-1.73515 0.4172,-0.41477 1.08079,-0.60758 1.44596,-1.15677 0.1186,-0.17837 0.13163,-0.42509 0.28241,-0.57725 0.36773,-0.37112 1.4195,-0.41845 1.73967,-0.57838 0.43011,-0.21485 0.73493,-0.62884 1.15225,-0.86758 0.64181,-0.36716 3.03632,-1.63027 3.76175,-1.73402 0.47713,-0.0682 0.97333,0.0945 1.44596,0 0.0945,-0.0189 -0.0862,-0.24595 0,-0.28919 0.29293,-0.14704 1.40861,-0.0367 1.73967,0 0.37381,0.0414 2.7501,0.4778 2.89192,0.28919 0.23854,-0.31723 0.0798,-0.81548 0.28241,-1.15677 0.17777,-0.29939 0.62331,-0.33249 0.86984,-0.57838 0.63494,-0.6333 1.01764,-1.48485 1.73967,-2.02322 1.13113,-0.84341 2.82321,-1.13406 4.04416,-1.73515 0.82763,-0.40744 1.56797,0.90652 2.3158,1.15677 1.1601,0.38822 3.1123,0.45636 3.76175,1.73402 0.35484,0.69807 0.69504,6.58051 0.57612,7.51673 -0.10065,0.79249 -0.47088,1.07248 -0.86983,1.73515 -0.83125,1.38074 -1.44596,3.04595 -1.44596,4.63046 0,0.28919 -0.20409,0.66268 0,0.86758 0.15164,0.15223 0.39719,0.17021 0.57613,0.28919 0.18823,0.12516 1.35438,1.55032 1.44595,1.73402 0.13622,0.27324 0.10231,0.62971 0.29371,0.86757 0.21829,0.27127 0.65285,0.30608 0.86984,0.57839 0.47466,0.59565 0.36996,1.30914 1.44596,2.02321 0.16001,0.10619 0.40449,-0.0862 0.57612,0 1.75977,0.88334 5.9971,2.49406 7.2298,-0.28919 0.23715,-0.53546 0.17801,-1.15778 0.28241,-1.73402 0.28631,-1.58032 0.4451,-3.21114 1.16355,-4.62594"
       id="path3942" />
    <path
       style="display:inline;fill:#ac9d93;fill-opacity:1;stroke-width:0.264583"
       d="m 86.521016,93.778333 c 2.81826,0.0341 5.562529,-0.28919 8.382045,-0.28919 0.390104,0 1.121929,-0.16265 1.445959,0 0.543954,0.27304 1.170389,0.96711 1.739669,1.15564 0.182304,0.0604 0.393888,-0.0606 0.576128,0 0.40946,0.13613 0.29139,0.63979 0.57612,0.86758 0.6738,0.53903 1.473543,0.96927 2.315793,1.15676 0.78605,0.17498 3.07741,-0.45697 3.76176,-0.86757 0.18541,-0.11125 0.10046,-0.48139 0.29371,-0.57839 0.34326,-0.1723 0.87856,-0.26947 1.15224,0 0.0687,0.0676 -0.0687,0.22156 0,0.2892 0.0698,0.0687 0.21219,-0.0542 0.29372,0 1.06068,0.70528 0.0466,0.73674 1.72837,1.15676 0.37629,0.094 0.7796,-0.0549 1.16354,0 0.78402,0.11213 1.52789,0.42306 2.3045,0.57839 1.01715,0.20342 4.06872,0.72566 4.9253,1.15563 0.30839,0.1548 0.53131,0.46888 0.85854,0.57839 0.72825,0.2437 2.21748,0.0494 2.89192,-0.2892 0.12279,-0.0616 0.16333,-0.24584 0.29371,-0.28919 1.13026,-0.37577 3.10828,0.0618 4.33787,-0.28919 0.33462,-0.0955 0.57134,-0.39839 0.86984,-0.57725 0.26209,-0.15706 0.65211,-0.0748 0.86983,-0.28919 0.0687,-0.0676 -0.0935,-0.26573 0,-0.2892 0.37253,-0.0935 0.76817,0 1.15225,0 0.48199,-0.19279 0.95336,-0.41461 1.44596,-0.57838 0.0929,-0.0309 0.22395,0.0687 0.29371,0 0.26397,-0.25991 0.0255,-2.74041 0,-2.89079 -0.0978,-0.57763 -0.51818,-1.07343 -0.29371,-1.7408 0.13429,-0.39925 0.59127,-0.72774 0.86983,-0.86757 0.65929,-0.33094 0.6134,-2.92309 0.57613,-3.17998 -0.0588,-0.40501 -0.62578,-0.53794 -0.86983,-0.86645 -1.41425,-1.90365 -4.00193,-3.10662 -6.35997,-3.46917 -0.6662,-0.10243 -1.34936,0.042 -2.02208,0 -3.22512,-0.20137 -6.34359,-1.09034 -9.54559,-1.44596 -0.0228,-0.003 -3.43792,0.002 -3.46804,0 -2.71097,-0.22606 -5.37355,-0.54522 -8.09963,0 -0.1047,0.0209 -1.909803,0.80951 -2.315793,0.86757 -3.094506,0.44257 1.33016,-0.82532 -2.891922,0.57839"
       id="path3735" />
    <ellipse
       style="display:inline;fill:url(#radialGradient3365);fill-opacity:1;stroke-width:0.276879"
       id="path111-3"
       cx="110.67098"
       cy="129.3932"
       inkscape:label="Shadow"
       rx="45.545452"
       ry="45.546581" />
  </g>
</svg>
